# Aspose.3D Wavefront OBJ Exporter
# Copyright 2004-2023 Aspose Pty Ltd.
# File created: 05/15/2023 14:40:37

mtllib material.lib

#
# object node_id3
#

v -0.34579003722932988 1.4801556026813452 0.26958503807054156
v 0.16620997075768428 1.47840746749418672 0.26958503807054156
v 0.16620997075768428 1.4801556026813452 0.26958503807054156
v -0.34579003722932988 1.47840746749418672 0.26958503807054156
v 0.16620997075768428 1.4801556026813452 -0.22086863845675176
v -0.34579003722932988 1.47840746749418672 -0.22086863845675176
v -0.34579003722932988 1.4801556026813452 -0.22086863845675176
v 0.16620997075768428 1.47840746749418672 -0.22086863845675176
v -0.34579003722932988 1.4801556026813452 -0.22086863845675176
v -0.34579003722932988 1.47840746749418672 0.26958503807054156
v -0.34579003722932988 1.4801556026813452 0.26958503807054156
v -0.34579003722932988 1.4801556026813452 -0.22086863845675176
v -0.34579003722932988 1.47840746749418672 -0.22086863845675176
v -0.34579003722932988 1.47840746749418672 0.26958503807054156
v 0.16620997075768428 1.4801556026813452 0.26958503807054156
v 0.16620997075768428 1.47840746749418672 -0.22086863845675176
v 0.16620997075768428 1.4801556026813452 -0.22086863845675176
v 0.16620997075768428 1.47840746749418672 0.26958503807054156
v 0.16620997075768428 1.4801556026813452 0.26958503807054156
v -0.34579003722932988 1.4801556026813452 -0.22086863845675176
v -0.34579003722932988 1.4801556026813452 0.26958503807054156
v 0.16620997075768428 1.4801556026813452 -0.22086863845675176
v 0.16620997075768428 1.47840746749418672 -0.22086863845675176
v -0.34579003722932988 1.47840746749418672 0.26958503807054156
v -0.34579003722932988 1.47840746749418672 -0.22086863845675176
v 0.16620997075768428 1.47840746749418672 0.26958503807054156
# 26 vertices

vn 0 0 1
vn 0 0 1
vn 0 0 1
vn 0 0 1
vn 0 0 -1
vn 0 0 -1
vn 0 0 -1
vn 0 0 -1
vn -1 0 0
vn -1 0 0
vn -1 0 0
vn -1 0 0
vn -1 0 0
vn -1 0 0
vn 1 0 0
vn 1 0 0
vn 1 0 0
vn 1 0 0
vn 0 1 0
vn 0 1 0
vn 0 1 0
vn 0 1 0
vn 0 -1 0
vn 0 -1 0
vn 0 -1 0
vn 0 -1 0
# 26 vertex normals

vt 0.44563275575637816 -0.63367605209350584 0
vt 0.58107829093933104 -0.99977236986160272 0
vt 0.41308379173278808 -0.98723554611206048 0
vt 0.56148886680603024 -0.53595083951950072 0
vt 0.6714245080947876 -0.00011768937110900879 0
vt 0.19707936048507692 -0.16379764676094056 0
vt 0.05345994234085083 -0.09032431244850158 0
vt 0.66737830638885496 -0.23826128244400024 0
vt 0.08379723131656647 -0.51959991455078128 0
vt 0.56148886680603024 -0.53595083951950072 0
vt 0.44563275575637816 -0.63367605209350584 0
vt 0.05345994234085083 -0.09032431244850158 0
vt 0.19707936048507692 -0.16379764676094056 0
vt 4.786252975463867E-05 -0.39830890297889712 0
vt 0.72380691766738896 -0.95277988910675056 0
vt 0.58173507452011112 -0.57345873117446896 0
vt 0.72380697727203376 -0.57345873117446896 0
vt 0.58173501491546632 -0.95277988910675056 0
vt 0.41308379173278808 -0.98723554611206048 0
vt 0.08379723131656647 -0.51959991455078128 0
vt 0.44563275575637816 -0.63367605209350584 0
vt 0.00057946029119193 -0.99898612499237056 0
vt 0.66737830638885496 -0.23826128244400024 0
vt 4.786252975463867E-05 -0.39830890297889712 0
vt 0.19707936048507692 -0.16379764676094056 0
vt 0.67675453424453736 -0.55996084213256832 0
# 26 texture coords

g node_id3
usemtl mat_9263408
s 1
f 1/1/1 2/2/2 3/3/3
f 1/1/1 4/4/4 2/2/2
f 5/5/5 6/6/6 7/7/7
f 5/5/5 8/8/8 6/6/6
f 9/9/9 10/10/10 11/11/11
f 12/12/12 13/13/13 14/14/14
f 15/15/15 16/16/16 17/17/17
f 15/15/15 18/18/18 16/16/16
f 19/19/19 20/20/20 21/21/21
f 19/19/19 22/22/22 20/20/20
f 23/23/23 24/24/24 25/25/25
f 23/23/23 26/26/26 24/24/24
#12 polygons

